# xmcd CD database file generated by Grip 3.0.7
# 
# Track frame offsets:
#       182
#       13907
#       28477
#       42402
#       55670
#       69887
#       83595
#       96887
#       113325
#       127312
#       140297
#       156565
#       170702
#       185382
#       198445
#       214127
#       228030
#       241907
#       255065
#       270265
#       284565
#       299182
#       312182
# 
# Disc length: 4346 seconds
# 
# Revision: 3
# Processed by: cddbd v1.5PL3 Copyright (c) Steve Scherf et al.
# Submitted via: Grip 3.0.7
# 
DISCID=4d10f817
DTITLE=Various Artist - Masters of the Delta Blues:  Friends of Charlie Patton
DYEAR=1991
DGENRE=Blues
TTITLE0=Kid Bailey - Rowdy Blues
TTITLE1=Tommy Johnson - Big Fat Mama Blues
TTITLE2=Bukka White - I Am In the Heavenly Way
TTITLE3=Willie Brown - Future Blues
TTITLE4=Ishmon Bracey - Brown Mama Blues
TTITLE5=Louise Johnson - On the Wall
TTITLE6=Son House - Walking Blues (unissued test)
TTITLE7=Tommy Johnson - Canned Heat Blues
TTITLE8=Bukka White - Promise True and Grand
TTITLE9=Kid Bailey - Mississippi Bottom Blues
TTITLE10=Tommy Johnson - Maggie Campbell Blues
TTITLE11=Son House - My Black Mama (part 1)
TTITLE12=Son House - My Black Mama (part 2)
TTITLE13=Bertha Lee - Yellow Bee
TTITLE14=Louise Johnson - Long Way From Home
TTITLE15=Willie Brown - M and O Blues
TTITLE16=Tommy Johnson - Button Up Shoes (take 1, unissued test)
TTITLE17=Bertha Lee - Mind Reader Blues
TTITLE18=Tommy Johnson - Lonesome Home Blues (take 1, unissued test)
TTITLE19=Son House - Dry Spell Blues (part 1)
TTITLE20=Son House - Dry Spell Blues (part 2)
TTITLE21=Son House - Preachin' The Blues (part 1)
TTITLE22=Son House - Preachin' The Blues (part 2)
EXTD=
EXTT0=
EXTT1=
EXTT2=
EXTT3=
EXTT4=
EXTT5=
EXTT6=
EXTT7=
EXTT8=
EXTT9=
EXTT10=
EXTT11=
EXTT12=
EXTT13=
EXTT14=
EXTT15=
EXTT16=
EXTT17=
EXTT18=
EXTT19=
EXTT20=
EXTT21=
EXTT22=
PLAYORDER=
